<?xml version="1.0" standalone="no"?>
<!DOCTYPE svg PUBLIC "-//W3C//DTD SVG 1.1//EN" "http://www.w3.org/Graphics/SVG/1.1/DTD/svg11.dtd">
<svg xmlns="http://www.w3.org/2000/svg">
<metadata>Generated by Fontastic.me</metadata>
<defs>
<font id="cobblestone" horiz-adv-x="512">
<font-face font-family="cobblestone" units-per-em="512" ascent="480" descent="-32"/>
<missing-glyph horiz-adv-x="512" />

<glyph glyph-name="checked" unicode="&#97;" d="M365 350l-141-141-77 77-23-24 100-100 164 164z"/>
<glyph glyph-name="close" unicode="&#98;" d="M384 361l-23 23-106-105-105 104-22-22 105-105-105-105 23-23 105 105 105-105 23 22-105 105z"/>
<glyph glyph-name="deploy-down" unicode="&#99;" d="M340 322l-84-84-84 85-24-23 108-108 108 107z"/>
<glyph glyph-name="deploy-up" unicode="&#100;" d="M256 323l-108-107 24-23 84 83 84-84 24 23z"/>
<glyph glyph-name="dropdown" unicode="&#101;" d="M171 299l170 0-85-86z"/>
<glyph glyph-name="dropleft" unicode="&#102;" d="M299 341l0-170-86 85z"/>
<glyph glyph-name="dropright" unicode="&#103;" d="M213 171l0 170 86-85z"/>
<glyph glyph-name="droptop" unicode="&#104;" d="M341 213l-170 0 85 86z"/>
<glyph glyph-name="download" unicode="&#105;" d="M256 85l-171 0 0-42 342 0 0 42z m0 0l31 30-1 1 183 183-30 30-162-162 0 302-42 0 0-302-162 162-30-30 183-183-1-1 31-30 0 1z"/>
<glyph glyph-name="external" unicode="&#106;" d="M469 334l0 135-135 0 0-42 62 0-123-124 30-30 124 123 0-62z m-128-57l0-149-213 0 0 213 149 0 43 43-235 0 0-299 299 0 0 235z"/>
<glyph glyph-name="facebook" unicode="&#107;" d="M289 43l-77 0 0 194-67 0 0 76 67 0 0 62c0 0-5 94 98 94 19 0 57-1 57-1l0-70-41 0c0 0-37 2-37-36l0-49 75 0-10-76-65 0z"/>
<glyph glyph-name="friend" unicode="&#108;" d="M309 170c-11 2-11 32-11 32 0 0 31 31 38 74 18 0 29 45 11 61 1 17 23 132-91 132-114 0-92-115-91-132-18-16-7-61 11-61 7-43 38-75 38-75 0 0 0-30-10-31-35-6-161-64-161-127l426 0c0 63-126 121-160 127z"/>
<glyph glyph-name="heart" unicode="&#109;" d="M469 341c0 2 0 4 0 6 0 0 0 1 0 1-4 56-50 100-106 100-59 0-107-48-107-107 0 59-48 107-107 107-56 0-102-44-106-100 0 0 0-1 0-1 0-2 0-4 0-6 0-2 0-3 0-5 6-127 213-272 213-272 0 0 207 145 213 272 0 2 0 3 0 5z"/>
<glyph glyph-name="add-alt" unicode="&#110;" d="M421 272l-149 0 0 149-33 0 0-149-148 0 0-32 148 0 0-149 33 0 0 149 149 0z"/>
<glyph glyph-name="pinterest" unicode="&#111;" d="M421 320c0-3 0-6-1-9-1-21-5-42-13-62-8-21-20-40-36-55-18-18-40-28-64-32-16-2-32-2-47 4-10 5-20 11-27 20-2 1-3 3-4 5-2-7-4-14-6-21-3-16-7-31-11-46-5-19-14-35-24-51-7-10-13-19-20-28-1-2-2-3-4-2-2 0-2 2-3 4-2 15-3 31-3 47 0 18 2 35 6 53 10 40 19 80 29 121 1 3 0 5-1 8-7 21-9 42-1 63 4 11 10 20 19 27 9 7 19 10 31 8 13-3 20-11 24-24 2-7 2-15 1-23-3-15-7-29-12-43-3-12-6-23-9-34-5-22 9-42 31-46 16-3 30 2 43 13 11 9 19 21 25 34 7 15 12 30 14 46 2 12 3 25 3 37 0 17-4 34-12 49-12 19-29 32-50 39-16 5-32 6-49 5-16-1-32-5-47-12-33-16-53-43-61-79-3-11-4-22-3-34 1-15 6-29 16-40 0-1 1-1 1-1 3-4 4-8 2-12-1-7-3-13-5-20 0-1 0-2-1-3-1-3-5-5-9-4-4 1-7 3-10 5-15 8-25 20-31 35-6 11-9 23-10 36-6 49 11 90 47 125 22 22 50 35 81 42 17 3 34 5 51 4 34-1 66-10 93-31 27-20 46-46 54-79 1-7 2-15 3-22 0 0 0-1 0-2z"/>
<glyph glyph-name="paypal" unicode="&#112;" d="M426 384c7-13 10-28 10-47 0-43-18-78-54-104-36-27-87-40-152-40l-15 0c-12 0-23-9-26-20l-18-78c-2-11-14-20-25-20l-34 0-2-12c-3-11 4-20 16-20l53 0c11 0 23 9 25 20l19 78c2 10 14 19 25 19l15 0c65 0 116 14 152 40 36 26 54 61 54 104 0 19-3 35-10 47-7 13-16 23-29 31-1 1-3 1-4 2z m-288-256l18 78c3 11 14 20 26 20l15 0c65 0 115 13 152 39 36 27 54 61 54 104 0 19-3 35-10 48-7 12-17 23-29 31-13 8-29 13-47 16-17 4-38 5-62 5l-111 0c-12 0-23-9-26-20l-75-321c-2-11 5-20 16-20l54 0c11 0 22 9 25 20z m44 187l16 68c2 11 14 20 25 20l17 0c21 0 36-4 47-11 10-6 15-17 15-31 0-21-8-38-24-49-16-12-38-17-67-17l-13 0c-12 0-19 9-16 20z"/>
<glyph glyph-name="pencil" unicode="&#113;" d="M311 396l-268-268 0-85 85 0 268 268z m60 61l-30-30 86-86 30 30c16 17 16 44 0 61l-25 25c-17 17-44 17-61 0z"/>
<glyph glyph-name="share" unicode="&#114;" d="M43 85l426 0 0-42-426 0z m192 342l42 0 0-214-42 0z m-192-128l42 0 0-214-42 0z m384 0l42 0 0-214-42 0z m-363 0l128 0 0-43-128 0z m256 0l149 0 0-43-149 0z m-64 170l30-30-96-96-30 30z m96-96l-30-30-96 96 30 30z"/>
<glyph glyph-name="menu" unicode="&#115;" d="M43 277l426 0 0-43-426 0z m0 107l426 0 0-43-426 0z m0-213l426 0 0-43-426 0z"/>
<glyph glyph-name="magnifyingglass" unicode="&#116;" d="M469 73l-121 121c23 29 36 65 36 105 0 94-76 170-171 170-94 0-170-76-170-170 0-95 76-171 170-171 40 0 76 13 105 36l121-121z m-256 98c-70 0-128 57-128 128 0 70 58 128 128 128 71 0 128-58 128-128 0-71-57-128-128-128z"/>
<glyph glyph-name="more" unicode="&#117;" d="M171 256c0-24-19-43-43-43-24 0-43 19-43 43 0 24 19 43 43 43 24 0 43-19 43-43z m128 0c0-24-19-43-43-43-24 0-43 19-43 43 0 24 19 43 43 43 24 0 43-19 43-43z m128 0c0-24-19-43-43-43-24 0-43 19-43 43 0 24 19 43 43 43 24 0 43-19 43-43z"/>
<glyph glyph-name="link" unicode="&#118;" d="M171 277l170 0 0-42-170 0z m64-85l-86 0c-35 0-64 29-64 64 0 35 29 64 64 64l86 0 0 42-86 0c-59 0-106-47-106-106 0-59 47-106 106-106l86 0z m128 170l-86 0 0-42 86 0c35 0 64-29 64-64 0-35-29-64-64-64l-86 0 0-42 86 0c59 0 106 47 106 106 0 59-47 106-106 106z"/>
<glyph glyph-name="googleplus" unicode="&#119;" d="M319 469l-102 0c-45 0-77-10-105-33-22-19-35-47-35-74 0-43 32-88 92-88 6 0 12 1 17 1l0-2c-3-5-5-11-5-19 0-17 8-27 15-37l2-1-2 0c-25-2-71-5-104-25-40-24-43-58-43-68 0-40 37-80 119-80 96 0 146 53 146 105 0 39-22 58-46 78l-21 16c-6 5-14 12-14 24 0 11 8 19 15 26l1 1c22 17 46 36 46 79 0 42-26 64-39 75l34 0c0 0 1 0 1 0l29 18c1 1 1 2 1 3-1 1-1 1-2 1z m-124-402c-58 0-97 27-97 67 0 27 16 46 47 58 26 8 58 9 59 9 5 0 8 0 12-1 41-29 61-44 61-73 0-37-31-60-82-60z m0 223c-49 0-70 64-70 99 0 17 4 31 13 41 9 11 24 18 38 18 45 0 70-60 70-102 0-7 0-27-14-41-9-9-24-15-37-15z m266-20l-54 0 0 54c0 1-1 2-2 2l-23 0c-1 0-2-1-2-2l0-54-53 0c-2 0-3-1-3-2l0-23c0-1 2-2 3-2l53 0 0-54c0-1 1-2 2-2l23 0c1 0 2 1 2 2l0 54 54 0c1 0 2 1 2 2l0 23c0 1-1 2-2 2z"/>
<glyph glyph-name="cart" unicode="&#120;" d="M427 85c0-23-19-42-43-42-24 0-43 19-43 42 0 24 19 43 43 43 24 0 43-19 43-43z m-235 0c0-23-19-42-43-42-23 0-42 19-42 42 0 24 19 43 42 43 24 0 43-19 43-43z m192 150c7 0 14 5 17 11l0 0c1 1 1 2 1 3l65 148c2 2 2 5 2 8 0 12-9 22-21 22l-316 0-14 42-75 0 0-42 45 0 58-168-28-38c-2-2-4-5-6-9-4-5-5-13-5-20 0-23 19-43 42-43l278 0 0 43-278 0 33 43z m34 128l0 0-2-5z"/>
<glyph glyph-name="arrow-down" unicode="&#121;" d="M396 349l-140-140-140 140-23-23 163-163 163 163z"/>
<glyph glyph-name="full" unicode="&#122;" d="M43 469l426 0 0-426-426 0z"/>
</font>
</defs>
</svg>
